<svg height="512pt" viewBox="0 -120 512 512" width="512pt" xmlns="http://www.w3.org/2000/svg"><path d="m18.023438 126.035156h326.121093c9.941407 0 18.027344-8.085937 18.027344-18.023437v-27.875c0-4.144531-3.359375-7.5-7.5-7.5-4.144531 0-7.5 3.355469-7.5 7.5v27.875c0 1.664062-1.359375 3.023437-3.027344 3.023437h-326.121093c-1.667969 0-3.023438-1.359375-3.023438-3.023437v-89.988281c0-1.667969 1.355469-3.023438 3.023438-3.023438h326.121093c1.667969 0 3.027344 1.355469 3.027344 3.023438v26.714843c0 4.144531 3.355469 7.5 7.5 7.5 4.140625 0 7.5-3.355469 7.5-7.5v-26.714843c0-9.9375-8.085937-18.023438-18.027344-18.023438h-326.121093c-9.9375 0-18.023438 8.085938-18.023438 18.023438v89.984374c0 9.941407 8.085938 18.027344 18.023438 18.027344zm0 0"/><path d="m493.976562 1.515625h-89.988281c-9.9375 0-18.023437 8.082031-18.023437 18.023437v86.957032c0 9.9375 8.085937 18.023437 18.023437 18.023437h89.988281c9.9375 0 18.023438-8.085937 18.023438-18.023437v-86.957032c0-9.941406-8.085938-18.023437-18.023438-18.023437zm3.023438 104.980469c0 1.667968-1.355469 3.023437-3.023438 3.023437h-89.988281c-1.667969 0-3.023437-1.355469-3.023437-3.023437v-86.957032c0-1.667968 1.355468-3.023437 3.023437-3.023437h89.988281c1.667969 0 3.023438 1.355469 3.023438 3.023437zm0 0"/><path d="m44.851562 55.84375h39.355469c4.144531 0 7.5-3.359375 7.5-7.5 0-4.144531-3.355469-7.5-7.5-7.5h-39.355469c-4.140624 0-7.5 3.355469-7.5 7.5 0 4.140625 3.359376 7.5 7.5 7.5zm0 0"/><path d="m44.851562 85.191406h78.714844c4.140625 0 7.5-3.359375 7.5-7.5 0-4.144531-3.359375-7.5-7.5-7.5h-78.714844c-4.140624 0-7.5 3.355469-7.5 7.5 0 4.140625 3.359376 7.5 7.5 7.5zm0 0"/><path d="m493.976562 146.839844h-98.277343c-4.144531 0-7.5 3.355468-7.5 7.5 0 4.140625 3.355469 7.5 7.5 7.5h98.277343c1.667969 0 3.023438 1.355468 3.023438 3.023437v89.984375c0 1.667969-1.355469 3.023438-3.023438 3.023438h-235.277343c-4.144531 0-7.5 3.359375-7.5 7.5 0 4.144531 3.355469 7.5 7.5 7.5h235.277343c9.9375 0 18.023438-8.085938 18.023438-18.023438v-89.984375c0-9.9375-8.085938-18.023437-18.023438-18.023437zm0 0"/><path d="m223.300781 257.871094h-55.445312c-1.667969 0-3.027344-1.355469-3.027344-3.023438v-89.984375c0-1.667969 1.359375-3.023437 3.027344-3.023437h192.445312c4.144531 0 7.5-3.359375 7.5-7.5 0-4.144532-3.355469-7.5-7.5-7.5h-192.445312c-9.941407 0-18.027344 8.085937-18.027344 18.023437v89.984375c0 9.9375 8.085937 18.023438 18.027344 18.023438h55.445312c4.144531 0 7.5-3.355469 7.5-7.5 0-4.140625-3.355469-7.5-7.5-7.5zm0 0"/><path d="m108.011719 148.351562h-89.988281c-9.9375 0-18.023438 8.085938-18.023438 18.027344v86.957032c0 9.9375 8.085938 18.023437 18.023438 18.023437h89.988281c9.9375 0 18.023437-8.085937 18.023437-18.023437v-86.957032c0-9.941406-8.085937-18.027344-18.023437-18.027344zm3.023437 104.984376c0 1.667968-1.355468 3.023437-3.023437 3.023437h-89.988281c-1.667969 0-3.023438-1.355469-3.023438-3.023437v-86.957032c0-1.667968 1.355469-3.027344 3.023438-3.027344h89.988281c1.667969 0 3.023437 1.359376 3.023437 3.027344zm0 0"/><path d="m467.148438 202.683594c4.140624 0 7.5-3.359375 7.5-7.5 0-4.144532-3.359376-7.5-7.5-7.5h-39.355469c-4.144531 0-7.5 3.355468-7.5 7.5 0 4.140625 3.355469 7.5 7.5 7.5zm0 0"/><path d="m388.433594 232.03125h78.714844c4.140624 0 7.5-3.359375 7.5-7.5 0-4.144531-3.359376-7.5-7.5-7.5h-78.714844c-4.140625 0-7.5 3.355469-7.5 7.5 0 4.140625 3.359375 7.5 7.5 7.5zm0 0"/></svg>