<svg height="512pt" viewBox="-58 0 512 512" width="512pt" xmlns="http://www.w3.org/2000/svg"><path d="m357.402344 369.550781v-154.378906c0-71.726563-47.671875-132.519531-112.988282-152.382813.015626-.289062.042969-.574218.042969-.867187v-12.9375c0-27.007813-20.769531-48.984375-46.296875-48.984375s-46.296875 21.976562-46.296875 48.984375v12.9375c0 .292969.027344.578125.042969.867187-65.316406 19.863282-112.988281 80.65625-112.988281 152.382813v154.378906c-21.996094 3.308594-38.917969 22.335938-38.917969 45.242188v23.917969c0 10.257812 8.347656 18.601562 18.605469 18.601562h111.511719c6.882812 31.238281 34.769531 54.6875 68.042968 54.6875 33.273438 0 61.160156-23.449219 68.042969-54.6875h111.511719c10.261718 0 18.605468-8.34375 18.605468-18.601562v-23.917969c0-22.90625-16.917968-41.933594-38.917968-45.242188zm-175.539063-320.566406c0-10.464844 7.3125-18.984375 16.296875-18.984375s16.296875 8.519531 16.296875 18.984375v7.773437c-5.359375-.546874-10.796875-.828124-16.296875-.828124s-10.9375.28125-16.296875.828124zm-112.945312 166.1875c0-71.265625 57.976562-129.242187 129.242187-129.242187s129.242188 57.976562 129.242188 129.242187v153.867187h-258.484375zm129.242187 266.828125c-16.578125 0-30.8125-10.21875-36.742187-24.6875h73.484375c-5.929688 14.46875-20.164063 24.6875-36.742188 24.6875zm168.160156-54.6875h-336.320312v-12.519531c0-8.6875 7.066406-15.757813 15.753906-15.757813h304.8125c8.6875 0 15.753906 7.070313 15.753906 15.757813zm0 0"/></svg>